<svg xmlns="http://www.w3.org/2000/svg" width="512" height="512" viewBox="0 0 24 24"><defs><clipPath id="b" clipPathUnits="userSpaceOnUse"><circle cx="12" cy="12" r="12" style="fill:#1bd741;stroke:red;stroke-width:0;stop-color:#000"/></clipPath></defs><linearGradient id="a" x1="-37.106" x2="-26.555" y1="-72.705" y2="-84.047" gradientTransform="matrix(0 -1.982 -1.844 0 -132.522 -51.077)" gradientUnits="userSpaceOnUse"><stop offset="0" stop-color="#fd5"/><stop offset=".5" stop-color="#ff543e"/><stop offset="1" stop-color="#c837ab"/></linearGradient><path fill="url(#a)" d="M1.444 1.604C-.448 3.568-.061 5.656-.061 11.996c0 5.266-.918 10.545 3.89 11.787 1.501.386 14.805.386 16.304-.002 2.002-.516 3.63-2.14 3.853-4.971.032-.396.032-13.225 0-13.628-.237-3.016-2.094-4.754-4.54-5.106-.56-.081-.673-.105-3.55-.11C5.693-.03 3.456-.484 1.444 1.604" clip-path="url(#b)" style="fill:#333;stroke-width:.997039"/><path fill="#fff" d="M12.034 4.72c-2.984 0-5.818-.265-6.9 2.513-.447 1.147-.382 2.636-.382 4.77 0 1.872-.06 3.63.382 4.769 1.08 2.78 3.936 2.513 6.898 2.513 2.857 0 5.803.297 6.898-2.513.448-1.159.382-2.626.382-4.77 0-2.844.157-4.68-1.222-6.06-1.397-1.397-3.286-1.221-6.06-1.221Zm-.653 1.313c6.224-.01 7.016-.702 6.579 8.91-.155 3.4-2.744 3.026-5.926 3.026-5.801 0-5.968-.166-5.968-5.97 0-5.87.46-5.963 5.315-5.968zm4.54 1.209a.874.874 0 1 0 0 1.747.874.874 0 0 0 0-1.747m-3.887 1.021a3.74 3.74 0 1 0 0 7.479 3.74 3.74 0 0 0 0-7.479m0 1.312c3.208 0 3.212 4.855 0 4.855-3.209 0-3.213-4.855 0-4.855" style="stroke-width:.997043"/></svg>