<svg xmlns="http://www.w3.org/2000/svg" viewBox="0 0 512 512"><circle cx="256" cy="256" r="256" fill="#c837ab"/><path fill="#fff" d="M273.878 209.692c-6.425-5.215-15.881-4.297-21.093 2.129-5.281 6.434-4.344 15.871 2.094 21.121 7.069 5.781 11.131 14.181 11.131 23.043 0 8.869-4.062 17.262-11.131 23.043a14.99 14.99 0 0 0-2.109 21.112c2.949 3.632 7.262 5.507 11.6 5.507 3.34 0 6.719-1.113 9.494-3.379 14.081-11.525 22.15-28.374 22.15-46.28s-8.072-34.734-22.134-46.296zm37.812-46.749c-6.387-5.215-15.837-4.317-21.112 2.089-5.254 6.406-4.316 15.856 2.09 21.112 21.175 17.362 33.318 42.612 33.318 69.311s-12.15 51.93-33.318 69.311c-6.406 5.254-7.344 14.706-2.09 21.112a14.97 14.97 0 0 0 11.6 5.488 14.95 14.95 0 0 0 9.512-3.399c28.187-22.528 44.312-56.277 44.312-92.527s-16.125-68.873-44.312-92.498zm38.312-46.218c-6.387-5.215-15.837-4.297-21.112 2.09-5.254 6.406-4.316 15.856 2.09 21.112 34.959 28.641 55.021 70.952 55.021 115.514s-20.056 87.436-55.036 116.06c-6.406 5.254-7.344 14.706-2.09 21.112a14.97 14.97 0 0 0 11.6 5.488 14.95 14.95 0 0 0 9.512-3.399C391.938 360.876 416 310.127 416 255.441S391.938 151.1 350.001 116.725zm-159.434 88.404c6.125.625 13-3.187 15.437-9.375l21.093-52.736c2.656-6.794-.406-15.075-5.969-18.35l-42.168-26.356c-5.956-3.737-13.643-2.865-18.643 2.119-85.761 85.761-85.754 225.383 0 311.131 4.989 4.99 12.637 5.862 18.593 2.126l42.174-26.368a15.08 15.08 0 0 0 5.999-18.312l-21.08-52.694c-2.466-6.227-8.837-10.069-15.456-9.356l-33.274 3.321c-11.962-35.089-11.962-73.401.019-108.463z"/></svg>