<svg xmlns="http://www.w3.org/2000/svg" width="512" height="512" viewBox="0 0 24 24"><circle cx="12" cy="12" r="12" style="fill:#55acee;fill-opacity:1;stroke:#000;stroke-width:0;stroke-miterlimit:4;stroke-dasharray:none;stop-color:#000"/><path fill="#55acee" d="M17.999 9.33a9 9 0 0 0-.011-.4 6.2 6.2 0 0 0 1.548-1.603 6.5 6.5 0 0 1-1.78.487 3.07 3.07 0 0 0 1.36-1.707 6.2 6.2 0 0 1-1.96.748 3.089 3.089 0 0 0-5.345 2.113c0 .244.02.48.072.704a8.75 8.75 0 0 1-6.37-3.233 3.094 3.094 0 0 0 .95 4.13 3.05 3.05 0 0 1-1.397-.38v.034a3.105 3.105 0 0 0 2.476 3.036 3.3 3.3 0 0 1-1.395.05 3.12 3.12 0 0 0 2.887 2.152 6.2 6.2 0 0 1-3.831 1.318c-.253 0-.496-.012-.74-.042a8.7 8.7 0 0 0 4.741 1.386c5.686 0 8.795-4.71 8.795-8.793" style="fill:#fff;stroke-width:.999997"/></svg>