<svg xmlns="http://www.w3.org/2000/svg" xml:space="preserve" width="512" height="512"><circle cx="256" cy="256" r="256" style="fill:#333;fill-opacity:1;stroke:red;stroke-width:0;stroke-miterlimit:4;stroke-dasharray:none;stop-color:#000"/><g style="stroke-width:.8901"><path d="m68.494 387.41 22.323-79.284c-14.355-24.387-21.913-52.134-21.913-80.638 0-87.765 71.402-159.167 159.167-159.167s159.166 71.402 159.166 159.167-71.401 159.167-159.166 159.167c-27.347 0-54.125-7-77.814-20.292zm85.943-50.004 4.872 2.975c20.654 12.609 44.432 19.274 68.762 19.274 72.877 0 132.166-59.29 132.166-132.167S300.948 95.321 228.071 95.321 95.904 154.611 95.904 227.488c0 25.393 7.217 50.052 20.869 71.311l3.281 5.109-12.855 45.658z" style="fill:#fff;stroke-width:.8901" transform="scale(1.12347)"/><path d="m183.359 153.407-10.328-.563a12.5 12.5 0 0 0-8.878 3.037c-5.007 4.348-13.013 12.754-15.472 23.708-3.667 16.333 2 36.333 16.667 56.333s42 52 90.333 65.667c15.575 4.404 27.827 1.435 37.28-4.612 7.487-4.789 12.648-12.476 14.508-21.166l1.649-7.702a5.35 5.35 0 0 0-2.993-5.98L271.22 246.04a5.35 5.35 0 0 0-6.477 1.591l-13.703 17.764a3.92 3.92 0 0 1-4.407 1.312c-9.384-3.298-40.818-16.463-58.066-49.687a3.96 3.96 0 0 1 .499-4.419l13.096-15.15a5.35 5.35 0 0 0 .872-5.602l-15.046-35.201a5.35 5.35 0 0 0-4.629-3.241" style="fill:#fff;stroke-width:.8901" transform="scale(1.12347)"/></g></svg>