<svg xmlns="http://www.w3.org/2000/svg" xml:space="preserve" width="512" height="512"><circle cx="256" cy="256" r="256" style="fill:red;fill-opacity:1;stroke:#000;stroke-width:0;stroke-miterlimit:4;stroke-dasharray:none;stop-color:#000"/><g style="stroke-width:.0923427"><path fill="red" d="M73.064 157.464a3.58 3.58 0 0 0-2.525-2.526c-2.228-.597-11.162-.597-11.162-.597s-8.935 0-11.162.597a3.58 3.58 0 0 0-2.526 2.526c-.597 2.227-.597 6.877-.597 6.877s0 4.65.597 6.876a3.58 3.58 0 0 0 2.526 2.526c2.227.598 11.162.598 11.162.598s8.934 0 11.162-.598a3.58 3.58 0 0 0 2.525-2.526c.598-2.227.598-6.876.598-6.876s-.003-4.65-.598-6.877" class="style-scope yt-icon" style="fill:#fff;stroke-width:.0923427" transform="translate(-387.002 -1523.674)scale(10.82918)"/><path fill="#fff" d="m56.517 168.626 7.422-4.285-7.422-4.285z" class="style-scope yt-icon" style="fill:red;stroke-width:.0923427" transform="translate(-387.002 -1523.674)scale(10.82918)"/></g></svg>