<svg xmlns="http://www.w3.org/2000/svg" xml:space="preserve" width="512" height="512"><circle cx="256" cy="256" r="256" style="fill:#333;fill-opacity:1;stroke:#000;stroke-width:0;stroke-miterlimit:4;stroke-dasharray:none;stop-color:#000"/><path fill="red" d="M404.221 181.532a38.75 38.75 0 0 0-27.343-27.355c-24.128-6.465-120.876-6.465-120.876-6.465s-96.759 0-120.875 6.465a38.75 38.75 0 0 0-27.355 27.355c-6.465 24.117-6.465 74.472-6.465 74.472s0 50.356 6.465 74.462a38.75 38.75 0 0 0 27.355 27.354c24.116 6.476 120.875 6.476 120.875 6.476s96.748 0 120.876-6.476a38.75 38.75 0 0 0 27.343-27.354c6.476-24.117 6.476-74.462 6.476-74.462s-.032-50.355-6.476-74.472" class="style-scope yt-icon" style="fill:#fff;stroke-width:.999996"/><path fill="#fff" d="m225.03 302.407 80.375-46.403-80.374-46.403z" class="style-scope yt-icon" style="fill:#333;stroke-width:.999996"/></svg>