<svg xmlns="http://www.w3.org/2000/svg" width="80" height="40" viewBox="0 0 21.167 10.583"><path d="M3.863 3.12 2.06 7.527h.634l.4-.997h1.954l.396.997h.648L4.295 3.12Zm.212.958.767 1.931h-1.54ZM8.532 2.993v1.939a1.1 1.1 0 0 0-.4-.339 1.3 1.3 0 0 0-.61-.146q-.419 0-.749.21a1.54 1.54 0 0 0-.527.565q-.19.356-.19.8t.19.8q.197.355.527.565.33.204.75.203.342 0 .616-.14.238-.126.393-.336v.413h.578V2.993Zm-.92 1.994q.285 0 .495.133.216.134.336.362.128.229.128.54 0 .299-.121.533a.9.9 0 0 1-.337.362.9.9 0 0 1-.495.134.97.97 0 0 1-.508-.134 1 1 0 0 1-.343-.362 1.16 1.16 0 0 1-.12-.54q0-.297.12-.526a.96.96 0 0 1 .343-.369.93.93 0 0 1 .501-.133M9.601 4.51v1.753q0 .394.165.692.165.3.458.47.298.165.666.165.388 0 .674-.165a1.2 1.2 0 0 0 .456-.47q.166-.299.166-.692V4.511h-.572v1.727q0 .375-.19.59-.19.21-.528.21a.76.76 0 0 1-.387-.095.64.64 0 0 1-.254-.274 1.05 1.05 0 0 1-.082-.431V4.51ZM14.22 4.447a1.2 1.2 0 0 0-.96.454v-.39h-.57v3.016h.57V5.768q0-.228.102-.407a.74.74 0 0 1 .28-.28.8.8 0 0 1 .406-.1q.343 0 .56.222a.78.78 0 0 1 .215.565v1.759h.571V5.653q0-.31-.152-.584a1.2 1.2 0 0 0-.42-.45 1.07 1.07 0 0 0-.602-.172M16.33 3.247V4.51h-.743v.52h.743v2.496h.572V5.03h.742v-.52h-.742V3.247ZM18.23 3.177a.34.34 0 0 0-.26.108.35.35 0 0 0-.101.254q0 .159.101.267a.35.35 0 0 0 .26.101.35.35 0 0 0 .261-.101.37.37 0 0 0 .102-.267.35.35 0 0 0-.102-.254.34.34 0 0 0-.26-.108m-.285 1.334v3.016h.572V4.51ZM20.08 4.447q-.335 0-.577.108a.86.86 0 0 0-.368.311.8.8 0 0 0-.134.47q0 .273.115.438.12.165.305.26.183.096.387.16.21.056.393.12a.9.9 0 0 1 .299.152q.12.09.12.255t-.145.26q-.146.09-.413.089-.267 0-.483-.096a1.1 1.1 0 0 1-.38-.305l-.37.369q.14.171.331.299.19.12.413.19.228.063.483.063.507 0 .806-.247a.82.82 0 0 0 .305-.674.77.77 0 0 0-.12-.45.84.84 0 0 0-.3-.273 1.8 1.8 0 0 0-.387-.16l-.393-.12a1 1 0 0 1-.299-.14.27.27 0 0 1-.114-.234q0-.153.127-.235.134-.09.38-.09.235 0 .42.09.19.089.317.254l.369-.369a1.1 1.1 0 0 0-.458-.368 1.5 1.5 0 0 0-.628-.127" style="font-size:6.35px;font-family:Outfit;-inkscape-font-specification:Outfit;letter-spacing:-.264583px;fill:#333;stroke-width:.264583"/><path d="M10.383 8.884a.573.573 0 0 0-.501.3.63.63 0 0 0-.074.308q0 .17.074.306.076.136.207.217.132.08.297.08a.5.5 0 0 0 .235-.053.44.44 0 0 0 .17-.15l.012-.02v.198h.173V8.909h-.173v.196l-.012-.018a.4.4 0 0 0-.17-.149.5.5 0 0 0-.238-.054m.028.164a.38.38 0 0 1 .35.212.5.5 0 0 1 .052.23.45.45 0 0 1-.111.318.37.37 0 0 1-.29.121.42.42 0 0 1-.372-.212.46.46 0 0 1-.054-.228q0-.128.054-.227a.4.4 0 0 1 .15-.158.43.43 0 0 1 .22-.056M12.182 8.321v.784l-.015-.02a.46.46 0 0 0-.175-.149.5.5 0 0 0-.238-.052.53.53 0 0 0-.289.082.6.6 0 0 0-.205.217.63.63 0 0 0-.074.309q0 .17.074.308.077.137.205.215a.54.54 0 0 0 .29.08.5.5 0 0 0 .24-.055.5.5 0 0 0 .172-.148l.015-.023v.2h.172V8.322Zm-.4.727q.12 0 .212.056.092.057.143.156a.47.47 0 0 1 .055.23.5.5 0 0 1-.052.229.4.4 0 0 1-.143.156.4.4 0 0 1-.213.054.44.44 0 0 1-.217-.054.4.4 0 0 1-.149-.156.5.5 0 0 1-.051-.23q0-.128.051-.227a.4.4 0 0 1 .364-.214M12.508 8.909l.536 1.16h.101l.541-1.16h-.188l-.4.894-.397-.894ZM14.309 8.884a.59.59 0 0 0-.598.603q0 .173.08.31a.59.59 0 0 0 .533.297.6.6 0 0 0 .257-.052.6.6 0 0 0 .202-.15l-.111-.114a.4.4 0 0 1-.15.116.5.5 0 0 1-.196.037.47.47 0 0 1-.232-.056.41.41 0 0 1-.205-.322h.95a.5.5 0 0 0 .013-.106.6.6 0 0 0-.072-.291.5.5 0 0 0-.192-.2.54.54 0 0 0-.28-.072m-.005.16q.12 0 .205.053.086.049.13.143a.4.4 0 0 1 .044.166h-.794a.39.39 0 0 1 .195-.306.43.43 0 0 1 .22-.055" style="font-weight:300;font-size:2.46944px;font-family:Outfit;-inkscape-font-specification:&quot;Outfit Light&quot;;letter-spacing:-.0661458px;fill:#333;stroke-width:.264583"/><path d="M15.554 8.884a.37.37 0 0 0-.331.178V8.91h-.173v1.16h.173v-.676q0-.17.084-.257a.28.28 0 0 1 .217-.088q.064 0 .114.02a.24.24 0 0 1 .094.066l.114-.121a.38.38 0 0 0-.292-.129M16.198 8.42v.489h-.294v.156h.294v1.005h.174V9.065h.29v-.156h-.29V8.42z" style="font-weight:300;font-size:2.46944px;font-family:Outfit;-inkscape-font-specification:&quot;Outfit Light&quot;;letter-spacing:0;fill:#333;stroke-width:.264583"/><path d="M16.986 8.415a.11.11 0 0 0-.084.035.12.12 0 0 0-.034.086q0 .05.034.087.034.034.084.034a.11.11 0 0 0 .087-.034.12.12 0 0 0 .034-.087.12.12 0 0 0-.034-.086.11.11 0 0 0-.087-.035m-.086.494v1.16h.175V8.91ZM17.725 8.884a.5.5 0 0 0-.214.043.3.3 0 0 0-.139.113.3.3 0 0 0-.047.17q0 .104.044.168a.3.3 0 0 0 .121.102q.075.034.156.059.082.022.153.046a.3.3 0 0 1 .121.067.15.15 0 0 1 .047.116.14.14 0 0 1-.066.124.3.3 0 0 1-.18.044.5.5 0 0 1-.199-.039.5.5 0 0 1-.155-.126l-.111.114a.56.56 0 0 0 .279.185.7.7 0 0 0 .18.024q.193 0 .304-.091a.3.3 0 0 0 .114-.25.29.29 0 0 0-.166-.279.8.8 0 0 0-.155-.061l-.156-.047a.4.4 0 0 1-.119-.062.13.13 0 0 1-.047-.106q0-.069.057-.111a.3.3 0 0 1 .17-.045.39.39 0 0 1 .305.139l.11-.111a.4.4 0 0 0-.17-.139.6.6 0 0 0-.237-.047M18.427 8.415a.11.11 0 0 0-.084.035.12.12 0 0 0-.035.086q0 .05.035.087.034.034.084.034a.11.11 0 0 0 .087-.034.12.12 0 0 0 .034-.087.12.12 0 0 0-.034-.086.11.11 0 0 0-.087-.035m-.087.494v1.16h.176V8.91ZM19.364 8.884a.447.447 0 0 0-.39.195v-.17H18.8v1.16h.174v-.684q0-.098.044-.175a.33.33 0 0 1 .299-.165q.148 0 .237.096.09.094.09.247v.682h.176v-.711a.49.49 0 0 0-.22-.41.44.44 0 0 0-.236-.065M20.567 8.884a.55.55 0 0 0-.492.287.6.6 0 0 0-.072.299.6.6 0 0 0 .075.301.55.55 0 0 0 .491.286.473.473 0 0 0 .412-.2l.013-.018v.184q0 .182-.119.289a.45.45 0 0 1-.313.106.56.56 0 0 1-.25-.052.5.5 0 0 1-.175-.145l-.114.113q.084.119.22.183a.7.7 0 0 0 .314.066.7.7 0 0 0 .318-.071.51.51 0 0 0 .292-.49V8.91h-.173v.194l-.012-.019a.4.4 0 0 0-.173-.148.54.54 0 0 0-.242-.052m.032.164q.12 0 .212.054a.37.37 0 0 1 .14.148.45.45 0 0 1 .053.22q0 .128-.052.224a.35.35 0 0 1-.14.146.4.4 0 0 1-.21.052.44.44 0 0 1-.218-.052.4.4 0 0 1-.149-.15.44.44 0 0 1-.054-.22q0-.126.052-.22a.4.4 0 0 1 .366-.202" style="font-weight:300;font-size:2.46944px;font-family:Outfit;-inkscape-font-specification:&quot;Outfit Light&quot;;letter-spacing:-.0661458px;fill:#333;stroke-width:.264583"/><path d="M0 0v10.583h9.11V8.731h-.578v1.274H.578V.578h7.954v1.274h.578V0Z" style="color:#000;fill:#333;-inkscape-stroke:none"/></svg>