<svg xmlns="http://www.w3.org/2000/svg" width="80" height="40" viewBox="0 0 21.167 10.583"><path d="M3.863 3.12 2.06 7.527h.634l.4-.997h1.954l.396.997h.648L4.295 3.12Zm.212.958.767 1.931h-1.54ZM8.532 2.993v1.939a1.1 1.1 0 0 0-.4-.339 1.3 1.3 0 0 0-.61-.146q-.419 0-.749.21a1.54 1.54 0 0 0-.527.565q-.19.356-.19.8t.19.8q.197.355.527.565.33.204.75.203.342 0 .616-.14.238-.126.393-.336v.413h.578V2.993Zm-.92 1.994q.285 0 .495.133.216.134.336.362.128.229.128.54 0 .299-.121.533a.9.9 0 0 1-.337.362.9.9 0 0 1-.495.134.97.97 0 0 1-.508-.134 1 1 0 0 1-.343-.362 1.16 1.16 0 0 1-.12-.54q0-.297.12-.526a.96.96 0 0 1 .343-.369.93.93 0 0 1 .501-.133M9.601 4.51v1.753q0 .394.165.692.165.3.458.47.298.165.666.165.388 0 .674-.165a1.2 1.2 0 0 0 .456-.47q.166-.299.166-.692V4.511h-.572v1.727q0 .375-.19.59-.19.21-.528.21a.76.76 0 0 1-.387-.095.64.64 0 0 1-.254-.274 1.05 1.05 0 0 1-.082-.431V4.51ZM14.22 4.447a1.2 1.2 0 0 0-.96.454v-.39h-.57v3.016h.57V5.768q0-.228.102-.407a.74.74 0 0 1 .28-.28.8.8 0 0 1 .406-.1q.343 0 .56.222a.78.78 0 0 1 .215.565v1.759h.571V5.653q0-.31-.152-.584a1.2 1.2 0 0 0-.42-.45 1.07 1.07 0 0 0-.602-.172M16.33 3.247V4.51h-.743v.52h.743v2.496h.572V5.03h.742v-.52h-.742V3.247ZM18.23 3.177a.34.34 0 0 0-.26.108.35.35 0 0 0-.101.254q0 .159.101.267a.35.35 0 0 0 .26.101.35.35 0 0 0 .261-.101.37.37 0 0 0 .102-.267.35.35 0 0 0-.102-.254.34.34 0 0 0-.26-.108m-.285 1.334v3.016h.572V4.51ZM20.08 4.447q-.335 0-.577.108a.86.86 0 0 0-.368.311.8.8 0 0 0-.134.47q0 .273.115.438.12.165.305.26.183.096.387.16.21.056.393.12a.9.9 0 0 1 .299.152q.12.09.12.255t-.145.26q-.146.09-.413.089-.267 0-.483-.096a1.1 1.1 0 0 1-.38-.305l-.37.369q.14.171.331.299.19.12.413.19.228.063.483.063.507 0 .806-.247a.82.82 0 0 0 .305-.674.77.77 0 0 0-.12-.45.84.84 0 0 0-.3-.273 1.8 1.8 0 0 0-.387-.16l-.393-.12a1 1 0 0 1-.299-.14.27.27 0 0 1-.114-.234q0-.153.127-.235.134-.09.38-.09.235 0 .42.09.19.089.317.254l.369-.369a1.1 1.1 0 0 0-.458-.368 1.5 1.5 0 0 0-.628-.127" style="font-size:6.35px;font-family:Outfit;-inkscape-font-specification:Outfit;letter-spacing:-.264583px;fill:#333;stroke-width:.264583"/><path d="M0 0v10.583h9.11V8.731h-.578v1.274H.578V.578h7.954v1.274h.578V0Z" style="color:#000;fill:#333;-inkscape-stroke:none"/><path d="M9.78 11.717v.488h-.294v.156h.294v1.005h.172v-1.005h.292v-.156h-.292v-.488z" style="font-weight:300;font-size:2.46944px;font-family:Outfit;-inkscape-font-specification:&quot;Outfit Light&quot;;letter-spacing:-.198437px;fill:#333;stroke-width:.5" transform="translate(.29 -3.296)"/><path d="M10.744 12.18a.59.59 0 0 0-.52.297.6.6 0 0 0-.078.306q0 .173.079.311a.6.6 0 0 0 .534.297.6.6 0 0 0 .256-.052.6.6 0 0 0 .203-.15l-.112-.114a.4.4 0 0 1-.15.116.5.5 0 0 1-.195.037.47.47 0 0 1-.232-.057.41.41 0 0 1-.206-.321h.951a.6.6 0 0 0 .013-.106.6.6 0 0 0-.071-.292.5.5 0 0 0-.193-.2.54.54 0 0 0-.28-.071m-.005.161q.12 0 .205.052.085.049.13.143a.4.4 0 0 1 .044.166h-.794a.39.39 0 0 1 .195-.306.43.43 0 0 1 .22-.055M11.935 12.18a.6.6 0 0 0-.605.603.6.6 0 0 0 .079.309.6.6 0 0 0 .217.22.6.6 0 0 0 .309.079.6.6 0 0 0 .442-.19l-.116-.117a.41.41 0 0 1-.326.139.4.4 0 0 1-.22-.057.4.4 0 0 1-.15-.155.5.5 0 0 1-.055-.228.45.45 0 0 1 .054-.225.4.4 0 0 1 .151-.155.4.4 0 0 1 .22-.057.44.44 0 0 1 .323.139l.114-.117a.54.54 0 0 0-.193-.138.6.6 0 0 0-.244-.05M12.447 11.618v1.748h.173v-.684q0-.099.044-.175a.33.33 0 0 1 .3-.166q.147 0 .236.096a.34.34 0 0 1 .092.248v.681h.175v-.711a.5.5 0 0 0-.059-.247.4.4 0 0 0-.16-.165.46.46 0 0 0-.238-.062q-.135 0-.242.06a.45.45 0 0 0-.148.135v-.758zM14.093 12.18q-.135 0-.242.06a.45.45 0 0 0-.148.136v-.17h-.174v1.16h.174v-.684q0-.099.044-.175a.33.33 0 0 1 .299-.166q.148 0 .237.096a.34.34 0 0 1 .091.248v.681h.175v-.711a.49.49 0 0 0-.22-.41.44.44 0 0 0-.236-.064M15.2 12.18a.604.604 0 0 0-.523.297.6.6 0 0 0-.079.304q0 .17.08.309a.593.593 0 0 0 .523.301.6.6 0 0 0 .306-.082.6.6 0 0 0 .296-.528.6.6 0 0 0-.081-.304.58.58 0 0 0-.521-.296m0 .166a.41.41 0 0 1 .369.212.43.43 0 0 1 .056.223q0 .126-.056.227a.41.41 0 0 1-.368.215.4.4 0 0 1-.218-.057.4.4 0 0 1-.15-.155.5.5 0 0 1-.055-.23q0-.126.055-.223a.4.4 0 0 1 .15-.155.4.4 0 0 1 .218-.057M15.879 11.618v1.748h.173v-1.748zM16.73 12.18a.605.605 0 0 0-.523.297.6.6 0 0 0-.08.304q0 .17.08.309a.591.591 0 0 0 .523.301.6.6 0 0 0 .306-.082.6.6 0 0 0 .296-.528.6.6 0 0 0-.08-.304.58.58 0 0 0-.522-.296m0 .166a.41.41 0 0 1 .368.212.43.43 0 0 1 .057.223q0 .126-.057.227a.4.4 0 0 1-.15.158.4.4 0 0 1-.218.057.4.4 0 0 1-.217-.057.4.4 0 0 1-.151-.155.5.5 0 0 1-.054-.23q0-.126.054-.223a.4.4 0 0 1 .15-.155.4.4 0 0 1 .218-.057M17.942 12.18a.55.55 0 0 0-.492.287.6.6 0 0 0-.071.3.6.6 0 0 0 .074.3.55.55 0 0 0 .491.287.473.473 0 0 0 .412-.2q.008-.01.013-.02v.185q0 .183-.119.289a.45.45 0 0 1-.313.106.56.56 0 0 1-.25-.052.5.5 0 0 1-.175-.146l-.113.114q.084.12.22.183a.7.7 0 0 0 .313.067.7.7 0 0 0 .318-.072.51.51 0 0 0 .292-.489v-1.114h-.173v.195l-.012-.02a.4.4 0 0 0-.173-.148.54.54 0 0 0-.242-.051m.032.163q.12 0 .212.055.092.054.14.148a.45.45 0 0 1 .053.22q0 .128-.052.225a.35.35 0 0 1-.14.145.4.4 0 0 1-.21.052.394.394 0 0 1-.366-.203.44.44 0 0 1-.055-.219q0-.126.053-.22a.4.4 0 0 1 .147-.148.44.44 0 0 1 .218-.055M18.733 11.711a.11.11 0 0 0-.083.035.12.12 0 0 0-.035.086q0 .05.035.087.034.034.083.034a.11.11 0 0 0 .087-.034.12.12 0 0 0 .034-.087.12.12 0 0 0-.034-.086.11.11 0 0 0-.087-.035m-.086.494v1.161h.175v-1.16zM19.495 12.18a.59.59 0 0 0-.518.297.6.6 0 0 0-.079.306q0 .173.079.311a.6.6 0 0 0 .533.297.6.6 0 0 0 .257-.052.6.6 0 0 0 .202-.15l-.11-.114a.4.4 0 0 1-.151.116.5.5 0 0 1-.195.037.47.47 0 0 1-.233-.057.41.41 0 0 1-.205-.321h.951a.6.6 0 0 0 .013-.106.6.6 0 0 0-.072-.292.5.5 0 0 0-.192-.2.54.54 0 0 0-.28-.071m-.005.161q.121 0 .205.052.087.049.131.143a.4.4 0 0 1 .044.166h-.795a.39.39 0 0 1 .195-.306.43.43 0 0 1 .22-.055M20.47 12.18a.5.5 0 0 0-.215.043.3.3 0 0 0-.138.113.3.3 0 0 0-.047.17q0 .105.045.169a.3.3 0 0 0 .12.101q.075.034.156.059.081.022.153.047a.3.3 0 0 1 .12.067.15.15 0 0 1 .048.116.14.14 0 0 1-.067.123.3.3 0 0 1-.18.045.5.5 0 0 1-.197-.04.5.5 0 0 1-.156-.126l-.111.114a.56.56 0 0 0 .279.185.7.7 0 0 0 .18.025q.193 0 .304-.092a.3.3 0 0 0 .113-.25.29.29 0 0 0-.165-.278.8.8 0 0 0-.156-.062l-.155-.047a.4.4 0 0 1-.119-.062.13.13 0 0 1-.047-.106q0-.07.057-.11a.28.28 0 0 1 .17-.045.4.4 0 0 1 .304.138l.111-.111a.4.4 0 0 0-.17-.138.6.6 0 0 0-.237-.047" style="font-weight:300;font-size:2.46944px;font-family:Outfit;-inkscape-font-specification:&quot;Outfit Light&quot;;letter-spacing:-.198437px;fill:#333;stroke-width:.5" transform="translate(.29 -3.296)"/></svg>