<svg xmlns="http://www.w3.org/2000/svg" width="100" height="100" viewBox="0 0 26.458 26.458"><g style="stroke-width:.444446"><g style="stroke-width:.444446"><path d="m7.25 10.581-1.803 4.407h.634l.4-.997h1.954l.396.997h.648L7.682 10.58Zm.212.958.767 1.932h-1.54ZM11.92 10.454v1.94a1.1 1.1 0 0 0-.4-.34 1.3 1.3 0 0 0-.61-.146q-.42 0-.75.21a1.54 1.54 0 0 0-.527.565q-.19.356-.19.8t.19.8q.197.356.527.565.33.203.75.203.342 0 .615-.14.238-.126.394-.336v.413h.578v-4.534zm-.922 1.994q.286 0 .496.133.216.134.336.363.127.228.127.54 0 .297-.12.532a.9.9 0 0 1-.337.363.9.9 0 0 1-.495.133.97.97 0 0 1-.508-.133 1 1 0 0 1-.343-.363 1.16 1.16 0 0 1-.12-.54q0-.298.12-.526a.96.96 0 0 1 .343-.369.93.93 0 0 1 .501-.133" style="font-size:6.35px;font-family:Outfit;-inkscape-font-specification:Outfit;letter-spacing:-.264583px;fill:#333;stroke-width:.117593" transform="translate(-4.64 -15.465)scale(2.25)"/></g><path d="M3.387 7.461v10.584h9.11v-1.853h-.578v1.275H3.965V8.039h7.954v1.274h.578V7.461Z" style="color:#000;fill:#333;stroke-width:.444446;-inkscape-stroke:none" transform="translate(-4.64 -15.465)scale(2.25)"/></g></svg>