<?xml version="1.0" encoding="UTF-8" standalone="no"?>
<!-- Created with Inkscape (http://www.inkscape.org/) -->

<svg
   width="80"
   height="40"
   viewBox="0 0 21.166666 10.583333"
   version="1.1"
   id="svg1"
   inkscape:version="1.3.1 (9b9bdc1480, 2023-11-25, custom)"
   sodipodi:docname="aduntis-advertising-logo-path.svg"
   xmlns:inkscape="http://www.inkscape.org/namespaces/inkscape"
   xmlns:sodipodi="http://sodipodi.sourceforge.net/DTD/sodipodi-0.dtd"
   xmlns="http://www.w3.org/2000/svg"
   xmlns:svg="http://www.w3.org/2000/svg">
  <sodipodi:namedview
     id="namedview1"
     pagecolor="#ffffff"
     bordercolor="#000000"
     borderopacity="0.25"
     inkscape:showpageshadow="2"
     inkscape:pageopacity="0.0"
     inkscape:pagecheckerboard="0"
     inkscape:deskcolor="#d1d1d1"
     inkscape:document-units="mm"
     inkscape:zoom="10.451768"
     inkscape:cx="39.801877"
     inkscape:cy="22.579911"
     inkscape:window-width="1930"
     inkscape:window-height="1529"
     inkscape:window-x="1085"
     inkscape:window-y="229"
     inkscape:window-maximized="0"
     inkscape:current-layer="layer1" />
  <defs
     id="defs1" />
  <g
     inkscape:label="Layer 1"
     inkscape:groupmode="layer"
     id="layer1">
    <g
       id="g1">
      <g
         id="g10">
        <path
           id="text7"
           style="font-size:6.35px;font-family:Outfit;-inkscape-font-specification:Outfit;letter-spacing:-0.264583px;fill:#333333;stroke-width:0.264583"
           d="M 3.8628133,3.120223 2.0598226,7.5266724 H 2.6944092 L 3.0933512,6.529834 H 5.0482707 L 5.4441121,7.5266724 H 6.0916178 L 4.2948283,3.120223 Z m 0.2123902,0.9575643 0.7668782,1.931665 H 3.302124 Z" />
        <path
           id="text6"
           style="font-size:6.35px;font-family:Outfit;-inkscape-font-specification:Outfit;letter-spacing:-0.264583px;fill:#333333;stroke-width:0.264583"
           d="m 8.5322833,2.993099 1.24e-5,1.9388997 C 8.4273654,4.7890672 8.2940789,4.6757616 8.1323201,4.5930013 7.950287,4.4956347 7.7469047,4.4472738 7.5225382,4.4472738 c -0.2793996,0 -0.5291751,0.06959 -0.7493082,0.2092895 C 6.5530969,4.7962632 6.3773636,4.9848371 6.2461304,5.2219035 6.1191305,5.4589699 6.0559611,5.7255216 6.0559611,6.0218547 c 0,0.296333 0.063169,0.5628847 0.1901693,0.7999511 0.1312332,0.2370664 0.3069665,0.4256403 0.5270996,0.5653402 0.2201331,0.1354665 0.4699086,0.2030884 0.7493082,0.2030884 0.2285998,0 0.43395,-0.046393 0.6159831,-0.1395264 C 8.2970131,7.365933 8.4283601,7.2536252 8.5322957,7.1142944 l -1.24e-5,0.412378 h 0.57785 V 2.993099 Z M 7.6114217,4.9867757 c 0.1904998,0 0.3558771,0.044425 0.495577,0.1333252 0.1439332,0.0889 0.2559803,0.209852 0.3364136,0.3622518 0.084667,0.1523998 0.127124,0.3320688 0.127124,0.539502 0,0.1989664 -0.04049,0.3766676 -0.1209229,0.5333007 C 8.3691802,6.7075553 8.2571331,6.8285073 8.1131999,6.9174072 7.9735,7.0063071 7.8086395,7.0507324 7.6181396,7.0507324 7.4276398,7.0507324 7.2583268,7.0063071 7.1101603,6.9174072 6.9662271,6.8285073 6.8516954,6.7075553 6.7670288,6.5551554 6.6865956,6.3985223 6.6466227,6.2188533 6.6466227,6.0156535 c 0,-0.1989665 0.039973,-0.3746998 0.1204061,-0.5270996 0.084667,-0.1566332 0.1991983,-0.2795531 0.3431315,-0.368453 0.1439331,-0.0889 0.3107616,-0.1333252 0.5012614,-0.1333252 z"
           sodipodi:nodetypes="cccsscsccsccccccsccsccsccscss" />
        <path
           id="text5"
           style="font-size:6.35px;font-family:Outfit;-inkscape-font-specification:Outfit;letter-spacing:-0.264583px;fill:#333333;stroke-width:0.264583"
           d="m 9.6014811,4.5108358 v 1.7523478 c 0,0.2624664 0.054781,0.492981 0.1648478,0.6919474 0.1100666,0.1989664 0.2626031,0.3559557 0.4573361,0.4702556 0.198967,0.1100665 0.421093,0.1648478 0.666626,0.1648478 0.258233,0 0.482844,-0.054781 0.673344,-0.1648478 0.194733,-0.1142999 0.346753,-0.2712892 0.45682,-0.4702556 0.110066,-0.1989664 0.165364,-0.429481 0.165364,-0.6919474 V 4.5108358 h -0.571541 v 1.7270263 c 0,0.2497665 -0.06369,0.4467285 -0.190686,0.5906617 -0.127,0.1396998 -0.302733,0.2092895 -0.527099,0.2092895 -0.148167,0 -0.27699,-0.031585 -0.387057,-0.095085 C 10.399369,6.8792283 10.314455,6.7878932 10.255188,6.66936 10.200158,6.5465934 10.172508,6.4029616 10.172508,6.2378617 V 4.5108358 Z" />
        <path
           id="text4"
           style="font-size:6.35px;font-family:Outfit;-inkscape-font-specification:Outfit;letter-spacing:-0.264583px;fill:#333333;stroke-width:0.264583"
           d="m 14.219804,4.4472738 c -0.2286,0 -0.43395,0.052813 -0.615983,0.1586466 -0.137307,0.076637 -0.251588,0.175081 -0.343132,0.2950724 v -0.390157 h -0.571024 v 3.0158366 h 0.571024 v -1.758549 c 0,-0.1523999 0.03407,-0.2881603 0.101803,-0.4066935 0.06773,-0.1185333 0.161036,-0.2118363 0.279569,-0.2795695 0.118534,-0.067733 0.253777,-0.1012859 0.406177,-0.1012859 0.2286,0 0.415206,0.074042 0.559139,0.2222087 0.143933,0.1481665 0.215491,0.3367404 0.215491,0.5653402 v 1.758549 h 0.571541 V 5.6534017 c 0,-0.2074331 -0.05084,-0.4019105 -0.152445,-0.5839437 -0.1016,-0.1862665 -0.241296,-0.3368354 -0.419096,-0.4511352 -0.173567,-0.1142999 -0.374464,-0.171049 -0.603064,-0.171049 z" />
        <path
           id="text3"
           style="font-size:6.35px;font-family:Outfit;-inkscape-font-specification:Outfit;letter-spacing:-0.264583px;fill:#333333;stroke-width:0.264583"
           d="m 16.330269,3.2468302 v 1.2640056 h -0.743107 v 0.5203816 h 0.743107 v 2.495455 h 0.571542 v -2.495455 h 0.74259 V 4.5108358 h -0.74259 V 3.2468302 Z" />
        <path
           id="text2"
           style="font-size:6.35px;font-family:Outfit;-inkscape-font-specification:Outfit;letter-spacing:-0.264583px;fill:#333333;stroke-width:0.264583"
           d="m 18.230929,3.1770671 c -0.105834,0 -0.192716,0.036037 -0.26045,0.1080037 -0.06773,0.067733 -0.101802,0.1526481 -0.101802,0.254248 0,0.1058333 0.03407,0.1946838 0.101802,0.2666504 0.06773,0.067733 0.154616,0.1012858 0.26045,0.1012858 0.105833,0 0.192716,-0.033553 0.260449,-0.1012858 0.06773,-0.071967 0.101286,-0.1608171 0.101286,-0.2666504 0,-0.1015999 -0.03355,-0.1865147 -0.101286,-0.254248 -0.06773,-0.071967 -0.154616,-0.1080037 -0.260449,-0.1080037 z m -0.285771,1.3337687 v 3.0158366 h 0.571541 V 4.5108358 Z" />
        <path
           id="text1"
           style="font-size:6.35px;font-family:Outfit;-inkscape-font-specification:Outfit;letter-spacing:-0.264583px;fill:#333333;stroke-width:0.264583"
           d="m 20.080945,4.4472738 c -0.224367,0 -0.416876,0.036037 -0.577743,0.1080037 -0.156633,0.071967 -0.279553,0.1756256 -0.368453,0.3110921 -0.0889,0.1312332 -0.133325,0.2877056 -0.133325,0.4697388 0,0.1820331 0.038,0.3281496 0.114205,0.4382161 0.08043,0.1100666 0.182124,0.1969493 0.304891,0.2604493 0.122767,0.0635 0.25159,0.1163133 0.387056,0.1586466 0.1397,0.0381 0.271008,0.078073 0.393775,0.1204061 0.122766,0.0381 0.22249,0.088945 0.29869,0.1524455 0.08043,0.059267 0.120406,0.1441815 0.120406,0.254248 0,0.1100666 -0.04836,0.1969493 -0.145728,0.2604492 -0.09737,0.059267 -0.235095,0.088884 -0.412894,0.088884 -0.1778,0 -0.338725,-0.032102 -0.482658,-0.095601 C 19.435233,6.906518 19.308378,6.8048269 19.198311,6.6693604 l -0.368453,0.3684529 c 0.09313,0.1142998 0.203213,0.2140232 0.330213,0.2986898 0.127,0.080433 0.264728,0.1436026 0.412894,0.1901693 0.1524,0.042333 0.313325,0.063562 0.482658,0.063562 0.338667,0 0.607186,-0.08243 0.806153,-0.2475301 0.2032,-0.1650999 0.304891,-0.389711 0.304891,-0.6733439 0,-0.1862665 -0.03997,-0.3363187 -0.120406,-0.4506185 C 20.970061,6.104442 20.870337,6.0136236 20.747571,5.9458903 20.624804,5.878157 20.495464,5.8248268 20.359998,5.7867269 20.224531,5.7443936 20.09374,5.7044208 19.96674,5.6663208 c -0.122767,-0.0381 -0.22249,-0.084493 -0.29869,-0.1395264 -0.0762,-0.055033 -0.114205,-0.1335278 -0.114205,-0.2351277 0,-0.1015999 0.04246,-0.1800945 0.127124,-0.2351278 0.0889,-0.059267 0.215756,-0.088883 0.380856,-0.088883 0.156633,0 0.296329,0.029617 0.419095,0.088883 0.127,0.059267 0.232627,0.1441815 0.317294,0.254248 L 21.166667,4.942334 C 21.048133,4.7772341 20.895597,4.6543143 20.70933,4.573881 20.527297,4.4892144 20.318011,4.4472738 20.080945,4.4472738 Z" />
      </g>
      <g
         id="g20">
        <path
           id="text20"
           style="font-weight:300;font-size:2.46944px;font-family:Outfit;-inkscape-font-specification:'Outfit Light';letter-spacing:-0.0661458px;fill:#333333;stroke-width:0.264583"
           d="m 10.383346,8.8842122 c -0.108656,0 -0.206786,0.027321 -0.294039,0.081649 -0.08725,0.052681 -0.1561878,0.1253654 -0.2072229,0.2175578 -0.049389,0.090546 -0.073897,0.1932679 -0.073897,0.3085083 0,0.1135941 0.024509,0.2153784 0.073897,0.3059245 0.051035,0.090546 0.1199689,0.1632301 0.2072229,0.2175572 0.08725,0.05268 0.186321,0.07906 0.296622,0.07906 0.08725,0 0.165467,-0.01762 0.234611,-0.05219 0.07079,-0.03622 0.127212,-0.086173 0.170016,-0.1503781 0.0043,-0.00619 0.0084,-0.012742 0.0124,-0.01912 V 10.06967 h 0.173116 V 8.9090169 h -0.173116 v 0.1963705 c -0.004,-0.00621 -0.0081,-0.012594 -0.0124,-0.018603 C 10.747756,9.0225794 10.691326,8.9730451 10.62054,8.938473 10.5514,8.902255 10.472245,8.884213 10.383346,8.8842122 Z m 0.02739,0.1632976 c 0.08067,0 0.15054,0.018979 0.209806,0.056844 0.06091,0.036219 0.107634,0.088048 0.14056,0.1555461 0.03457,0.065852 0.05219,0.1421899 0.05219,0.2294434 0,0.1317033 -0.03754,0.2381753 -0.111621,0.3188435 -0.07244,0.080668 -0.168692,0.1209229 -0.288871,0.1209229 -0.08231,0 -0.155419,-0.018979 -0.219625,-0.056844 -0.0642,-0.037865 -0.115097,-0.089694 -0.152962,-0.155546 -0.03622,-0.065852 -0.05426,-0.1417692 -0.05426,-0.2273763 0,-0.085607 0.018042,-0.1615247 0.05426,-0.2273763 0.03787,-0.067498 0.08782,-0.1197485 0.150378,-0.1576132 0.06421,-0.037865 0.137827,-0.056844 0.220142,-0.056844 z" />
        <path
           id="text19"
           style="font-weight:300;font-size:2.46944px;font-family:Outfit;-inkscape-font-specification:'Outfit Light';letter-spacing:-0.0661458px;fill:#333333;stroke-width:0.264583"
           d="m 12.181685,8.3214559 v 0.7839315 c -0.0047,-0.00711 -0.0098,-0.014349 -0.01499,-0.021187 -0.0461,-0.064205 -0.104392,-0.1132224 -0.175183,-0.1477946 -0.07079,-0.034572 -0.149941,-0.052193 -0.237195,-0.052193 -0.107009,0 -0.203264,0.027321 -0.288871,0.081649 -0.08561,0.052681 -0.15412,0.1253654 -0.205155,0.2175578 -0.04939,0.090546 -0.0739,0.1932679 -0.0739,0.3085083 0,0.1135941 0.02451,0.216316 0.0739,0.3085083 0.05104,0.090546 0.119548,0.1622926 0.205155,0.2149738 0.08561,0.05268 0.181862,0.07906 0.288871,0.07906 0.0889,0 0.168988,-0.01804 0.239779,-0.05426 0.07079,-0.03622 0.128149,-0.085752 0.172599,-0.1483115 0.0053,-0.00733 0.0102,-0.015149 0.01499,-0.022738 v 0.2005055 h 0.1726 V 8.3214559 Z M 11.78171,9.0475098 c 0.08067,0 0.151477,0.018979 0.21239,0.056844 0.06091,0.037865 0.108572,0.089694 0.143144,0.1555461 0.03622,0.065852 0.05426,0.1421899 0.05426,0.2294434 0,0.085607 -0.0171,0.1619454 -0.05168,0.2294433 -0.03457,0.065852 -0.08223,0.1181981 -0.143143,0.1560628 -0.06091,0.036219 -0.131722,0.05426 -0.21239,0.05426 -0.08067,0 -0.153353,-0.018042 -0.217558,-0.05426 -0.06256,-0.037865 -0.112093,-0.090211 -0.148312,-0.1560628 -0.03457,-0.067498 -0.05168,-0.1438362 -0.05168,-0.2294433 0,-0.085607 0.0171,-0.1615247 0.05168,-0.2273763 0.03622,-0.067498 0.08575,-0.1197485 0.148312,-0.1576132 0.06256,-0.037865 0.134306,-0.056844 0.214974,-0.056844 z" />
        <path
           id="text18"
           style="font-weight:300;font-size:2.46944px;font-family:Outfit;-inkscape-font-specification:'Outfit Light';letter-spacing:-0.0661458px;fill:#333333;stroke-width:0.264583"
           d="m 12.50828,8.9090169 0.535885,1.1606531 h 0.101286 L 13.685986,8.9090169 H 13.498401 L 13.098425,9.8025024 12.700517,8.9090169 Z" />
        <path
           id="text17"
           style="font-weight:300;font-size:2.46944px;font-family:Outfit;-inkscape-font-specification:'Outfit Light';letter-spacing:-0.0661458px;fill:#333333;stroke-width:0.264583"
           d="m 14.308687,8.8842122 c -0.111947,0 -0.212794,0.026384 -0.30334,0.079065 -0.09055,0.052681 -0.162293,0.1253654 -0.214974,0.2175578 -0.05268,0.090546 -0.07906,0.1923303 -0.07906,0.3059244 0,0.1152405 0.02638,0.2188998 0.07906,0.3110922 0.05433,0.092192 0.127432,0.1648764 0.219625,0.2175574 0.09219,0.05268 0.196789,0.07906 0.313676,0.07906 0.09219,0 0.177809,-0.01762 0.256831,-0.05219 0.08067,-0.03622 0.148244,-0.086173 0.202572,-0.1503783 L 14.671973,9.7782145 c -0.04116,0.051035 -0.09163,0.089931 -0.150896,0.116272 -0.05927,0.024694 -0.124029,0.03669 -0.19482,0.03669 -0.08725,0 -0.164529,-0.018463 -0.232027,-0.056327 -0.06585,-0.037865 -0.117681,-0.090632 -0.155546,-0.1581298 -0.02618,-0.04879 -0.04287,-0.1033246 -0.05013,-0.1632976 h 0.951363 c 0.0049,-0.023048 0.0082,-0.042448 0.0098,-0.058911 0.0016,-0.018109 0.0026,-0.033855 0.0026,-0.047026 0,-0.1103016 -0.02409,-0.2074943 -0.07183,-0.2914551 -0.0461,-0.085607 -0.110438,-0.1522454 -0.192753,-0.1999878 -0.08067,-0.047743 -0.17369,-0.07183 -0.279053,-0.07183 z m -0.0047,0.1607137 c 0.08067,0 0.148665,0.017104 0.204639,0.051676 0.05762,0.032926 0.101625,0.080585 0.131258,0.1431437 0.02446,0.047622 0.03856,0.1031657 0.04289,0.1658813 h -0.79375 c 0.0072,-0.057173 0.02278,-0.1084514 0.04702,-0.153479 0.03622,-0.065852 0.08575,-0.1167438 0.148312,-0.1529622 0.06256,-0.036218 0.135664,-0.05426 0.219624,-0.05426 z" />
        <path
           id="text16"
           style="font-weight:300;font-size:2.46944px;font-family:Outfit;-inkscape-font-specification:'Outfit Light';letter-spacing:0px;fill:#333333;stroke-width:0.264583"
           d="m 15.554089,8.8842122 c -0.125118,0 -0.224186,0.043067 -0.296622,0.1286744 -0.01287,0.015569 -0.02409,0.032026 -0.03462,0.049609 V 8.9090169 H 15.050244 V 10.06967 h 0.172599 V 9.3932251 c 0,-0.1135941 0.02826,-0.1992117 0.08423,-0.2568319 0.05597,-0.059266 0.128141,-0.088883 0.217041,-0.088883 0.0428,0 0.08076,0.00647 0.113688,0.019637 0.03457,0.01317 0.06606,0.035383 0.09405,0.066663 L 15.84554,9.0128874 c -0.04116,-0.04445 -0.08558,-0.07688 -0.133325,-0.096635 -0.04774,-0.021402 -0.100509,-0.032039 -0.15813,-0.032039 z" />
        <path
           id="text15"
           style="font-weight:300;font-size:2.46944px;font-family:Outfit;-inkscape-font-specification:'Outfit Light';letter-spacing:0px;fill:#333333;stroke-width:0.264583"
           d="m 16.198494,8.4201579 v 0.488859 H 15.904456 V 9.064563 h 0.294038 v 1.005107 h 0.173117 V 9.064563 h 0.290938 V 8.9090169 h -0.290938 v -0.488859 z" />
        <path
           id="text14"
           style="font-weight:300;font-size:2.46944px;font-family:Outfit;-inkscape-font-specification:'Outfit Light';letter-spacing:-0.0661458px;fill:#333333;stroke-width:0.264583"
           d="m 16.986043,8.4149902 c -0.03293,0 -0.06067,0.011575 -0.08372,0.034623 -0.02305,0.023048 -0.03462,0.051728 -0.03462,0.0863 0,0.032926 0.01158,0.062122 0.03462,0.086816 0.02305,0.023048 0.05079,0.034623 0.08372,0.034623 0.03622,0 0.06542,-0.011575 0.08682,-0.034623 0.02305,-0.024694 0.03462,-0.053891 0.03462,-0.086816 0,-0.034572 -0.01157,-0.063252 -0.03462,-0.0863 -0.0214,-0.023048 -0.0506,-0.034623 -0.08682,-0.034623 z m -0.0863,0.4940267 V 10.06967 h 0.175183 V 8.9090169 Z" />
        <path
           id="text13"
           style="font-weight:300;font-size:2.46944px;font-family:Outfit;-inkscape-font-specification:'Outfit Light';letter-spacing:-0.0661458px;fill:#333333;stroke-width:0.264583"
           d="m 17.725016,8.8842122 c -0.08231,0 -0.153544,0.014388 -0.214457,0.042375 -0.05927,0.026341 -0.105567,0.063783 -0.138493,0.1131714 -0.03128,0.047743 -0.04703,0.1046806 -0.04703,0.1705322 0,0.069144 0.01481,0.1251448 0.04444,0.1679484 0.03128,0.042804 0.07153,0.076592 0.120923,0.1012858 0.04939,0.023048 0.101219,0.042965 0.155546,0.059428 0.05433,0.014817 0.105737,0.030046 0.153479,0.046509 0.04939,0.016463 0.08964,0.038676 0.120923,0.066663 0.03128,0.027987 0.04703,0.066883 0.04703,0.116272 0,0.052681 -0.02221,0.093873 -0.06666,0.1235067 -0.0428,0.029633 -0.102975,0.044442 -0.180351,0.044442 -0.07244,0 -0.138654,-0.012933 -0.19792,-0.039274 -0.05762,-0.027987 -0.10945,-0.070117 -0.155546,-0.1260905 L 17.255794,9.884668 c 0.03457,0.042804 0.07483,0.079825 0.120923,0.1111043 0.04774,0.03128 0.10051,0.055788 0.15813,0.073898 0.05762,0.01646 0.117792,0.0248 0.180351,0.0248 0.128411,0 0.229774,-0.03055 0.303857,-0.09147 0.07573,-0.062559 0.113688,-0.1458805 0.113688,-0.2495969 0,-0.074083 -0.01575,-0.1323795 -0.04703,-0.1751831 -0.02963,-0.04445 -0.06895,-0.079175 -0.118339,-0.1038696 -0.04939,-0.026341 -0.101219,-0.046678 -0.155546,-0.061495 -0.05433,-0.016463 -0.106674,-0.032209 -0.156063,-0.047026 -0.04774,-0.016463 -0.08706,-0.036801 -0.118339,-0.061495 -0.03128,-0.026341 -0.04703,-0.062004 -0.04703,-0.1064534 0,-0.046096 0.01898,-0.083117 0.05684,-0.1111043 0.03951,-0.029633 0.09645,-0.044442 0.170533,-0.044442 0.06421,0 0.121564,0.012513 0.172599,0.037207 0.05268,0.023048 0.09669,0.056836 0.131258,0.1012858 L 18.13273,9.0697231 c -0.0428,-0.060913 -0.09974,-0.1072133 -0.170532,-0.1384928 -0.07079,-0.03128 -0.149941,-0.047026 -0.237195,-0.047026 z" />
        <path
           id="text12"
           style="font-weight:300;font-size:2.46944px;font-family:Outfit;-inkscape-font-specification:'Outfit Light';letter-spacing:-0.0661458px;fill:#333333;stroke-width:0.264583"
           d="m 18.426782,8.4149902 c -0.03293,0 -0.06067,0.011575 -0.08372,0.034623 -0.02305,0.023048 -0.03462,0.051728 -0.03462,0.0863 0,0.032926 0.01158,0.062122 0.03462,0.086816 0.02305,0.023048 0.05079,0.034623 0.08372,0.034623 0.03622,0 0.06542,-0.011575 0.08682,-0.034623 0.02305,-0.024694 0.03462,-0.053891 0.03462,-0.086816 0,-0.034572 -0.01158,-0.063252 -0.03462,-0.0863 -0.0214,-0.023048 -0.0506,-0.034623 -0.08682,-0.034623 z m -0.0863,0.4940267 V 10.06967 h 0.175183 V 8.9090169 Z" />
        <path
           id="text11"
           style="font-weight:300;font-size:2.46944px;font-family:Outfit;-inkscape-font-specification:'Outfit Light';letter-spacing:-0.0661458px;fill:#333333;stroke-width:0.264583"
           d="m 19.363676,8.8842122 c -0.09055,0 -0.171572,0.019917 -0.242363,0.059428 -0.05976,0.034147 -0.108941,0.07963 -0.147794,0.1359091 V 8.9090169 H 18.800403 V 10.06967 h 0.173116 V 9.3854736 c 0,-0.065852 0.01481,-0.124148 0.04444,-0.1751831 0.02963,-0.051035 0.06989,-0.09129 0.120922,-0.1209228 0.05104,-0.029633 0.110269,-0.044442 0.177767,-0.044442 0.09878,0 0.177929,0.031913 0.237195,0.096118 0.06091,0.062559 0.09095,0.1449433 0.09095,0.2470134 V 10.06967 h 0.1757 V 9.3586019 c 0,-0.085607 -0.01992,-0.164758 -0.05943,-0.2371948 -0.03787,-0.072437 -0.09157,-0.1297957 -0.160714,-0.1725993 -0.06914,-0.042804 -0.147778,-0.064596 -0.236678,-0.064596 z" />
        <path
           id="text10"
           style="font-weight:300;font-size:2.46944px;font-family:Outfit;-inkscape-font-specification:'Outfit Light';letter-spacing:-0.0661458px;fill:#333333;stroke-width:0.264583"
           d="m 20.566703,8.8842122 c -0.107009,0 -0.203264,0.025446 -0.288871,0.076481 -0.08561,0.051035 -0.153183,0.1214233 -0.202572,0.210323 -0.04774,0.087254 -0.07183,0.186742 -0.07183,0.2986898 0,0.1119479 0.02502,0.2123739 0.07441,0.3012736 0.04939,0.0889 0.116448,0.1587713 0.202055,0.2098063 0.08561,0.051035 0.182379,0.076481 0.289388,0.076481 0.0889,0 0.168471,-0.0171 0.239262,-0.05168 0.07079,-0.036219 0.128666,-0.085753 0.173116,-0.1483116 0.0043,-0.00615 0.0079,-0.012273 0.01189,-0.018604 V 10.02264 c 0,0.121826 -0.03932,0.218081 -0.118339,0.288871 -0.07738,0.07079 -0.181973,0.106454 -0.313676,0.106454 -0.09549,0 -0.17829,-0.01762 -0.249081,-0.05219 -0.07079,-0.03457 -0.129603,-0.08265 -0.1757,-0.145211 l -0.113688,0.113171 c 0.05597,0.07902 0.129596,0.140131 0.220142,0.182935 0.09219,0.04445 0.196789,0.06666 0.313676,0.06666 0.121825,0 0.227781,-0.02409 0.318327,-0.07183 0.09219,-0.0461 0.163939,-0.110859 0.214974,-0.19482 0.05104,-0.08396 0.07648,-0.182091 0.07648,-0.294039 V 8.9090169 H 20.99355 v 0.1937866 c -0.0039,-0.0062 -0.0076,-0.012612 -0.01189,-0.018604 -0.0428,-0.064205 -0.100679,-0.1132224 -0.173116,-0.1477946 -0.07079,-0.034572 -0.1513,-0.052193 -0.241846,-0.052193 z m 0.03204,0.1632976 c 0.08067,0 0.151477,0.018042 0.21239,0.05426 0.06091,0.036218 0.107634,0.085752 0.14056,0.1483114 0.03457,0.062559 0.05219,0.1356639 0.05219,0.2196248 0,0.085607 -0.01762,0.1605871 -0.05219,0.2247925 -0.03293,0.062559 -0.07965,0.1111554 -0.14056,0.1457275 -0.05927,0.034572 -0.129138,0.051676 -0.209807,0.051676 -0.08231,0 -0.154998,-0.017104 -0.217557,-0.051676 -0.06256,-0.036218 -0.112093,-0.08669 -0.148312,-0.1508951 -0.03622,-0.064205 -0.05426,-0.1373103 -0.05426,-0.2196249 0,-0.083961 0.01762,-0.1570657 0.05219,-0.2196248 0.03622,-0.062559 0.08524,-0.112093 0.147795,-0.1483114 0.06421,-0.036218 0.136889,-0.05426 0.217558,-0.05426 z" />
      </g>
      <path
         style="color:#000000;fill:#333333;-inkscape-stroke:none"
         d="M 0,0 V 10.583333 H 9.1101333 V 8.73125 h -0.57785 v 1.274233 H 0.57785 V 0.57785 h 7.9544333 v 1.2742333 h 0.57785 V 0 Z"
         id="path3-0-9"
         sodipodi:nodetypes="ccccccccccccc" />
    </g>
  </g>
</svg>
